<svg width="72" height="18" viewBox="0 0 72 18" fill="none" xmlns="http://www.w3.org/2000/svg">
<path d="M13.792 7.278V8.84401C13.7941 8.95017 13.7656 9.05468 13.7099 9.14509C13.6542 9.23551 13.5737 9.30803 13.478 9.35401C12.388 9.87683 11.2004 10.165 9.99203 10.2C8.78459 10.1661 7.5977 9.87924 6.50803 9.35801C6.41148 9.31183 6.3303 9.23877 6.27425 9.1476C6.21819 9.05642 6.18965 8.95101 6.19203 8.84401V7.278C6.19466 7.20626 6.21473 7.13624 6.25049 7.07399C6.28626 7.01174 6.33665 6.95914 6.3973 6.92074C6.45796 6.88234 6.52705 6.85929 6.59862 6.85359C6.67018 6.84788 6.74206 6.8597 6.80803 6.88801C7.81286 7.33046 8.89445 7.57233 9.99203 7.60001C11.09 7.57354 12.1722 7.33305 13.178 6.892C13.2436 6.86421 13.3149 6.85267 13.3859 6.85837C13.4569 6.86408 13.5255 6.88685 13.5858 6.92476C13.6461 6.96266 13.6963 7.01458 13.7322 7.07609C13.7681 7.13759 13.7887 7.20686 13.792 7.278Z" fill="#0066FF"/>
<path d="M17.9002 10.946C17.819 11.8962 17.3812 12.7804 16.6748 13.4211C15.9685 14.0619 15.0458 14.4116 14.0922 14.4H11.9922L7.99223 17V14.4L11.9922 11.8H14.0962C14.3939 11.8108 14.6846 11.7081 14.9096 11.5129C15.1345 11.3176 15.277 11.0442 15.3082 10.748C15.4305 8.74953 15.4205 6.74515 15.2782 4.748C15.2541 4.4816 15.135 4.23275 14.9426 4.04694C14.7502 3.86113 14.4973 3.75076 14.2302 3.736C12.8662 3.652 11.4302 3.6 9.99223 3.6C8.55423 3.6 7.11823 3.648 5.75423 3.744C5.48714 3.75876 5.23429 3.86913 5.04187 4.05494C4.84945 4.24075 4.73031 4.4896 4.70623 4.756C4.56398 6.75315 4.55396 8.75753 4.67623 10.756C4.70932 11.0508 4.85261 11.3222 5.07738 11.5158C5.30214 11.7094 5.59177 11.8109 5.88823 11.8H7.99223V14.4H5.89223C4.93969 14.4095 4.01878 14.0586 3.31406 13.4177C2.60934 12.7767 2.17291 11.8932 2.09223 10.944C1.95995 8.81237 1.96997 6.67429 2.12223 4.544C2.19782 3.66059 2.58663 2.83328 3.21851 2.2113C3.85038 1.58933 4.68373 1.21364 5.56823 1.152C6.99223 1.05 8.49223 1 9.99223 1C11.4922 1 12.9922 1.05 14.4162 1.152C15.3034 1.21205 16.1397 1.58807 16.7734 2.21186C17.4071 2.83564 17.7962 3.66589 17.8702 4.552C18.0222 6.6803 18.0322 8.81637 17.9002 10.946Z" fill="#0066FF"/>
<path d="M22.5312 8.75195C22.5312 7.24414 22.9355 6.08203 23.7441 5.26562C24.4473 4.55469 25.3418 4.19922 26.4277 4.19922C27.8809 4.19922 28.9434 4.67578 29.6152 5.62891C29.9863 6.16406 30.1855 6.70117 30.2129 7.24023H28.4082C28.291 6.82617 28.1406 6.51367 27.957 6.30273C27.6289 5.92773 27.1426 5.74023 26.498 5.74023C25.8418 5.74023 25.3242 6.00586 24.9453 6.53711C24.5664 7.06445 24.377 7.8125 24.377 8.78125C24.377 9.75 24.5762 10.4766 24.9746 10.9609C25.377 11.4414 25.8867 11.6816 26.5039 11.6816C27.1367 11.6816 27.6191 11.4746 27.9512 11.0605C28.1348 10.8379 28.2871 10.5039 28.4082 10.0586H30.1953C30.0391 11 29.6387 11.7656 28.9941 12.3555C28.3535 12.9453 27.5312 13.2402 26.5273 13.2402C25.2852 13.2402 24.3086 12.8418 23.5977 12.0449C22.8867 11.2441 22.5312 10.1465 22.5312 8.75195ZM35.0648 6.44922C35.4594 6.44922 35.8168 6.51758 36.1371 6.6543C36.4613 6.79102 36.727 7 36.934 7.28125C37.1098 7.51953 37.2172 7.76562 37.2563 8.01953C37.2953 8.26953 37.3148 8.67969 37.3148 9.25V13H35.6098V9.11523C35.6098 8.77148 35.5512 8.49414 35.434 8.2832C35.2816 7.98633 34.9926 7.83789 34.5668 7.83789C34.1254 7.83789 33.7895 7.98633 33.559 8.2832C33.3324 8.57617 33.2191 8.99609 33.2191 9.54297V13H31.5551V4.39258H33.2191V7.44531C33.4613 7.07422 33.7406 6.81641 34.057 6.67188C34.3773 6.52344 34.7133 6.44922 35.0648 6.44922ZM42.5008 9.89453C42.3953 9.96094 42.2879 10.0156 42.1785 10.0586C42.073 10.0977 41.9266 10.1348 41.7391 10.1699L41.3641 10.2402C41.0125 10.3027 40.7605 10.3789 40.6082 10.4688C40.3504 10.6211 40.2215 10.8574 40.2215 11.1777C40.2215 11.4629 40.2996 11.6699 40.4559 11.7988C40.616 11.9238 40.8094 11.9863 41.0359 11.9863C41.3953 11.9863 41.7254 11.8809 42.0262 11.6699C42.3309 11.459 42.4891 11.0742 42.5008 10.5156V9.89453ZM41.4871 9.11523C41.7957 9.07617 42.0164 9.02734 42.1492 8.96875C42.3875 8.86719 42.5066 8.70898 42.5066 8.49414C42.5066 8.23242 42.4148 8.05273 42.2313 7.95508C42.0516 7.85352 41.7859 7.80273 41.4344 7.80273C41.0398 7.80273 40.7605 7.90039 40.5965 8.0957C40.4793 8.24023 40.4012 8.43555 40.3621 8.68164H38.7508C38.7859 8.12305 38.9422 7.66406 39.2195 7.30469C39.6609 6.74219 40.4188 6.46094 41.493 6.46094C42.1922 6.46094 42.8133 6.59961 43.3563 6.87695C43.8992 7.1543 44.1707 7.67773 44.1707 8.44727V11.377C44.1707 11.5801 44.1746 11.8262 44.1824 12.1152C44.1941 12.334 44.2273 12.4824 44.282 12.5605C44.3367 12.6387 44.4188 12.7031 44.5281 12.7539V13H42.7117C42.6609 12.8711 42.6258 12.75 42.6063 12.6367C42.5867 12.5234 42.5711 12.3945 42.5594 12.25C42.3289 12.5 42.0633 12.7129 41.7625 12.8887C41.4031 13.0957 40.9969 13.1992 40.5438 13.1992C39.9656 13.1992 39.4871 13.0352 39.1082 12.707C38.7332 12.375 38.5457 11.9062 38.5457 11.3008C38.5457 10.5156 38.8484 9.94727 39.4539 9.5957C39.7859 9.4043 40.2742 9.26758 40.9188 9.18555L41.4871 9.11523ZM45.1027 7.86133V6.67188H45.9934V4.89062H47.6457V6.67188H48.6828V7.86133H47.6457V11.2363C47.6457 11.498 47.6789 11.6621 47.7453 11.7285C47.8117 11.791 48.0148 11.8223 48.3547 11.8223C48.4055 11.8223 48.4582 11.8223 48.5129 11.8223C48.5715 11.8184 48.6281 11.8145 48.6828 11.8105V13.0586L47.8918 13.0879C47.1027 13.1152 46.5637 12.9785 46.2746 12.6777C46.0871 12.4863 45.9934 12.1914 45.9934 11.793V7.86133H45.1027ZM51.7418 5.86328V7.76758H53.8629C54.2418 7.76758 54.5484 7.69727 54.7828 7.55664C55.0211 7.41211 55.1402 7.1582 55.1402 6.79492C55.1402 6.39258 54.984 6.12695 54.6715 5.99805C54.402 5.9082 54.0582 5.86328 53.6402 5.86328H51.7418ZM51.7418 9.19727V11.5H53.8629C54.2418 11.5 54.5367 11.4492 54.7477 11.3477C55.1305 11.1602 55.3219 10.8008 55.3219 10.2695C55.3219 9.82031 55.1363 9.51172 54.7652 9.34375C54.5582 9.25 54.2672 9.20117 53.8922 9.19727H51.7418ZM54.2145 4.36328C55.273 4.37891 56.023 4.68555 56.4645 5.2832C56.7301 5.65039 56.8629 6.08984 56.8629 6.60156C56.8629 7.12891 56.7301 7.55273 56.4645 7.87305C56.316 8.05273 56.0973 8.2168 55.8082 8.36523C56.2496 8.52539 56.5816 8.7793 56.8043 9.12695C57.0309 9.47461 57.1441 9.89648 57.1441 10.3926C57.1441 10.9043 57.0152 11.3633 56.7574 11.7695C56.5934 12.0391 56.3883 12.2656 56.1422 12.4492C55.8648 12.6602 55.5367 12.8047 55.1578 12.8828C54.7828 12.9609 54.3746 13 53.9332 13H50.0191V4.36328H54.2145ZM61.4922 11.8223C61.9805 11.8223 62.3555 11.6484 62.6172 11.3008C62.8789 10.9531 63.0098 10.459 63.0098 9.81836C63.0098 9.17773 62.8789 8.68555 62.6172 8.3418C62.3555 7.99414 61.9805 7.82031 61.4922 7.82031C61.0039 7.82031 60.627 7.99414 60.3613 8.3418C60.0996 8.68555 59.9688 9.17773 59.9688 9.81836C59.9688 10.459 60.0996 10.9531 60.3613 11.3008C60.627 11.6484 61.0039 11.8223 61.4922 11.8223ZM64.7617 9.81836C64.7617 10.7559 64.4922 11.5586 63.9531 12.2266C63.4141 12.8906 62.5957 13.2227 61.498 13.2227C60.4004 13.2227 59.582 12.8906 59.043 12.2266C58.5039 11.5586 58.2344 10.7559 58.2344 9.81836C58.2344 8.89648 58.5039 8.09766 59.043 7.42188C59.582 6.74609 60.4004 6.4082 61.498 6.4082C62.5957 6.4082 63.4141 6.74609 63.9531 7.42188C64.4922 8.09766 64.7617 8.89648 64.7617 9.81836ZM65.4066 7.86133V6.67188H66.2973V4.89062H67.9496V6.67188H68.9867V7.86133H67.9496V11.2363C67.9496 11.498 67.9828 11.6621 68.0492 11.7285C68.1156 11.791 68.3187 11.8223 68.6586 11.8223C68.7094 11.8223 68.7621 11.8223 68.8168 11.8223C68.8754 11.8184 68.932 11.8145 68.9867 11.8105V13.0586L68.1957 13.0879C67.4066 13.1152 66.8676 12.9785 66.5785 12.6777C66.391 12.4863 66.2973 12.1914 66.2973 11.793V7.86133H65.4066Z" fill="#131317"/>
</svg>
