<svg width="80" height="18" viewBox="0 0 80 18" fill="none" xmlns="http://www.w3.org/2000/svg">
<path d="M10 8.138L14.074 4.6H10C8.558 4.6 7.124 4.648 5.76 4.742C5.49341 4.75763 5.24126 4.86834 5.04933 5.05403C4.85741 5.23972 4.73843 5.48807 4.714 5.754C4.648 6.6 4.6 7.656 4.6 8.708V9.292C4.6 10.344 4.644 11.394 4.712 12.238C4.73654 12.504 4.85588 12.7524 5.04825 12.9378C5.24063 13.1232 5.49323 13.2333 5.76 13.248C8.58401 13.442 11.418 13.442 14.242 13.248C14.5086 13.2332 14.7609 13.1231 14.953 12.9376C15.145 12.7522 15.2639 12.5039 15.288 12.238C15.352 11.438 15.39 10.456 15.398 9.462L18 7.2C18 7.2 18 8.76 18 9.286V9.456C18 10.518 17.95 11.574 17.882 12.44C17.8076 13.3256 17.4186 14.1554 16.7854 14.7791C16.1522 15.4027 15.3167 15.7791 14.43 15.84C13 15.948 11.5 16 10 16C8.5 16 7 15.948 5.574 15.848C4.68666 15.7875 3.85036 15.4111 3.2167 14.7869C2.58304 14.1628 2.19397 13.3323 2.12 12.446C2.048 11.534 2 10.412 2 9.292V8.708C2 7.586 2.05 6.464 2.12 5.552C2.19448 4.66624 2.58383 3.83648 3.21748 3.2131C3.85113 2.58972 4.68714 2.21399 5.574 2.154C7 2.052 8.498 2 10 2H18V4.6L10 11.544L6.262 8.302L8.226 6.6L10 8.138Z" fill="#2FC774"/>
<path d="M22.9023 13V4.36328H24.6895V7.65625H28.0645V4.36328H29.8574V13H28.0645V9.14453H24.6895V13H22.9023ZM34.0707 7.82031C33.684 7.82031 33.3832 7.94141 33.1684 8.18359C32.9574 8.42578 32.8246 8.75391 32.7699 9.16797H35.3656C35.3383 8.72656 35.2035 8.39258 34.9613 8.16602C34.723 7.93555 34.4262 7.82031 34.0707 7.82031ZM34.0707 6.44336C34.602 6.44336 35.0805 6.54297 35.5063 6.74219C35.932 6.94141 36.2836 7.25586 36.5609 7.68555C36.8109 8.06445 36.973 8.50391 37.0473 9.00391C37.0902 9.29688 37.1078 9.71875 37.1 10.2695H32.7289C32.7523 10.9102 32.9535 11.3594 33.3324 11.6172C33.5629 11.7773 33.8402 11.8574 34.1645 11.8574C34.5082 11.8574 34.7875 11.7598 35.0023 11.5645C35.1195 11.459 35.223 11.3125 35.3129 11.125H37.018C36.975 11.5039 36.7777 11.8887 36.4262 12.2793C35.8793 12.9004 35.1137 13.2109 34.1293 13.2109C33.3168 13.2109 32.6 12.9492 31.9789 12.4258C31.3578 11.9023 31.0473 11.0508 31.0473 9.87109C31.0473 8.76562 31.3266 7.91797 31.8852 7.32812C32.4477 6.73828 33.1762 6.44336 34.0707 6.44336ZM40.0359 13H38.366V4.36328H40.0359V13ZM46.1711 9.80664C46.1711 9.31445 46.0578 8.87891 45.8312 8.5C45.6086 8.12109 45.2453 7.93164 44.7414 7.93164C44.1359 7.93164 43.7199 8.21875 43.4934 8.79297C43.3762 9.09766 43.3176 9.48438 43.3176 9.95312C43.3176 10.6953 43.5148 11.2168 43.9094 11.5176C44.1437 11.6934 44.4211 11.7812 44.7414 11.7812C45.2062 11.7812 45.5598 11.6016 45.802 11.2422C46.048 10.8828 46.1711 10.4043 46.1711 9.80664ZM45.2219 6.47266C45.968 6.47266 46.5988 6.74805 47.1145 7.29883C47.634 7.84961 47.8937 8.6582 47.8937 9.72461C47.8937 10.8496 47.6398 11.707 47.132 12.2969C46.6281 12.8867 45.9777 13.1816 45.1809 13.1816C44.673 13.1816 44.2512 13.0547 43.9152 12.8008C43.7316 12.6602 43.552 12.4551 43.3762 12.1855V15.5137H41.7238V6.61328H43.3234V7.55664C43.5031 7.2793 43.6945 7.06055 43.8977 6.90039C44.2687 6.61523 44.7102 6.47266 45.2219 6.47266ZM51.0934 5.86328V11.5H52.7574C53.609 11.5 54.2027 11.0801 54.5387 10.2402C54.7223 9.7793 54.8141 9.23047 54.8141 8.59375C54.8141 7.71484 54.6754 7.04102 54.398 6.57227C54.1246 6.09961 53.5777 5.86328 52.7574 5.86328H51.0934ZM53.0621 4.36328C53.5973 4.37109 54.0426 4.43359 54.398 4.55078C55.0035 4.75 55.4937 5.11523 55.8687 5.64648C56.1695 6.07617 56.3746 6.54102 56.484 7.04102C56.5934 7.54102 56.648 8.01758 56.648 8.4707C56.648 9.61914 56.4176 10.5918 55.9566 11.3887C55.3316 12.4629 54.3668 13 53.0621 13H49.3414V4.36328H53.0621ZM60.498 7.82031C60.1113 7.82031 59.8105 7.94141 59.5957 8.18359C59.3848 8.42578 59.252 8.75391 59.1973 9.16797H61.793C61.7656 8.72656 61.6309 8.39258 61.3887 8.16602C61.1504 7.93555 60.8535 7.82031 60.498 7.82031ZM60.498 6.44336C61.0293 6.44336 61.5078 6.54297 61.9336 6.74219C62.3594 6.94141 62.7109 7.25586 62.9883 7.68555C63.2383 8.06445 63.4004 8.50391 63.4746 9.00391C63.5176 9.29688 63.5352 9.71875 63.5273 10.2695H59.1562C59.1797 10.9102 59.3809 11.3594 59.7598 11.6172C59.9902 11.7773 60.2676 11.8574 60.5918 11.8574C60.9355 11.8574 61.2148 11.7598 61.4297 11.5645C61.5469 11.459 61.6504 11.3125 61.7402 11.125H63.4453C63.4023 11.5039 63.2051 11.8887 62.8535 12.2793C62.3066 12.9004 61.541 13.2109 60.5566 13.2109C59.7441 13.2109 59.0273 12.9492 58.4062 12.4258C57.7852 11.9023 57.4746 11.0508 57.4746 9.87109C57.4746 8.76562 57.7539 7.91797 58.3125 7.32812C58.875 6.73828 59.6035 6.44336 60.498 6.44336ZM66.059 10.9609C66.0941 11.2578 66.1703 11.4688 66.2875 11.5938C66.4945 11.8164 66.8773 11.9277 67.4359 11.9277C67.7641 11.9277 68.0238 11.8789 68.2152 11.7812C68.4105 11.6836 68.5082 11.5371 68.5082 11.3418C68.5082 11.1543 68.4301 11.0117 68.2738 10.9141C68.1176 10.8164 67.5375 10.6484 66.5336 10.4102C65.8109 10.2305 65.3012 10.0059 65.0043 9.73633C64.7074 9.4707 64.559 9.08789 64.559 8.58789C64.559 7.99805 64.7895 7.49219 65.2504 7.07031C65.7152 6.64453 66.3676 6.43164 67.2074 6.43164C68.0043 6.43164 68.6527 6.5918 69.1527 6.91211C69.6566 7.22852 69.9457 7.77734 70.0199 8.55859H68.35C68.3266 8.34375 68.266 8.17383 68.1684 8.04883C67.9848 7.82227 67.6723 7.70898 67.2309 7.70898C66.8676 7.70898 66.6078 7.76562 66.4516 7.87891C66.2992 7.99219 66.223 8.125 66.223 8.27734C66.223 8.46875 66.3051 8.60742 66.4691 8.69336C66.6332 8.7832 67.2133 8.9375 68.2094 9.15625C68.8734 9.3125 69.3715 9.54883 69.7035 9.86523C70.0316 10.1855 70.1957 10.5859 70.1957 11.0664C70.1957 11.6992 69.9594 12.2168 69.4867 12.6191C69.018 13.0176 68.2914 13.2168 67.307 13.2168C66.3031 13.2168 65.5609 13.0059 65.0805 12.584C64.6039 12.1582 64.3656 11.6172 64.3656 10.9609H66.059ZM71.5203 4.39258H73.1609V9.04492L75.241 6.64258H77.3094L75.077 9.08594L77.3973 13H75.3816L73.8523 10.2695L73.1609 10.9902V13H71.5203V4.39258Z" fill="#131317"/>
</svg>
