<svg width="118" height="18" viewBox="0 0 118 18" fill="none" xmlns="http://www.w3.org/2000/svg">
<path d="M15.4 4.68V2H15.272C13.042 2.09 11.2 3.542 10.064 4.676L10 4.738L9.936 4.676C8.8 3.542 6.958 2.09 4.728 2H4.6V4.68H2V9.292C2 10.412 2.048 11.534 2.12 12.446C2.19442 13.332 2.5837 14.162 3.21731 14.7857C3.85093 15.4094 4.68697 15.7855 5.574 15.846C7 15.948 8.5 16 10 16C11.5 16 13 15.948 14.428 15.848C15.3147 15.7871 16.1502 15.4107 16.7834 14.7871C17.4166 14.1634 17.8056 13.3336 17.88 12.448C17.952 11.536 17.994 10.414 18 9.294V4.68H15.4ZM15.4 9.292C15.4 10.344 15.356 11.394 15.288 12.238C15.2639 12.5039 15.145 12.7522 14.953 12.9376C14.7609 13.1231 14.5086 13.2332 14.242 13.248C11.418 13.442 8.58401 13.442 5.76 13.248C5.49323 13.2333 5.24063 13.1232 5.04825 12.9378C4.85588 12.7524 4.73654 12.504 4.712 12.238C4.644 11.4 4.6 10.344 4.6 9.292V4.68C6.488 4.76 8.352 6.77 8.918 7.562L10 9.066L11.082 7.562C11.648 6.762 13.514 4.762 15.4 4.68V9.292Z" fill="#9146FF"/>
<path d="M22.9434 4.36328H24.7188V7.91992L28.0527 4.36328H30.3848L26.8457 7.91992L30.5664 13H28.2461L25.5801 9.22656L24.7188 10.1113V13H22.9434V4.36328ZM35.0902 6.46094C35.7504 6.46094 36.2895 6.63477 36.7074 6.98242C37.1293 7.32617 37.3402 7.89844 37.3402 8.69922V13H35.6293V9.11523C35.6293 8.7793 35.5844 8.52148 35.4945 8.3418C35.3305 8.01367 35.018 7.84961 34.557 7.84961C33.9906 7.84961 33.602 8.08984 33.391 8.57031C33.2816 8.82422 33.227 9.14844 33.227 9.54297V13H31.5629V6.625H33.1742V7.55664C33.3891 7.22852 33.5922 6.99219 33.7836 6.84766C34.1273 6.58984 34.5629 6.46094 35.0902 6.46094ZM41.8523 11.8223C42.3406 11.8223 42.7156 11.6484 42.9773 11.3008C43.2391 10.9531 43.3699 10.459 43.3699 9.81836C43.3699 9.17773 43.2391 8.68555 42.9773 8.3418C42.7156 7.99414 42.3406 7.82031 41.8523 7.82031C41.3641 7.82031 40.9871 7.99414 40.7215 8.3418C40.4598 8.68555 40.3289 9.17773 40.3289 9.81836C40.3289 10.459 40.4598 10.9531 40.7215 11.3008C40.9871 11.6484 41.3641 11.8223 41.8523 11.8223ZM45.1219 9.81836C45.1219 10.7559 44.8523 11.5586 44.3133 12.2266C43.7742 12.8906 42.9559 13.2227 41.8582 13.2227C40.7605 13.2227 39.9422 12.8906 39.4031 12.2266C38.8641 11.5586 38.5945 10.7559 38.5945 9.81836C38.5945 8.89648 38.8641 8.09766 39.4031 7.42188C39.9422 6.74609 40.7605 6.4082 41.8582 6.4082C42.9559 6.4082 43.7742 6.74609 44.3133 7.42188C44.8523 8.09766 45.1219 8.89648 45.1219 9.81836ZM49.4348 6.61328H51.1281L52.1008 11.2129L53.0969 6.61328H54.8371L52.9855 13H51.2687L50.2668 8.34766L49.2531 13H47.5187L45.7258 6.61328H47.5187L48.5148 11.1953L49.4348 6.61328ZM57.568 13H55.898V4.36328H57.568V13ZM61.8223 7.82031C61.4355 7.82031 61.1348 7.94141 60.9199 8.18359C60.709 8.42578 60.5762 8.75391 60.5215 9.16797H63.1172C63.0898 8.72656 62.9551 8.39258 62.7129 8.16602C62.4746 7.93555 62.1777 7.82031 61.8223 7.82031ZM61.8223 6.44336C62.3535 6.44336 62.832 6.54297 63.2578 6.74219C63.6836 6.94141 64.0352 7.25586 64.3125 7.68555C64.5625 8.06445 64.7246 8.50391 64.7988 9.00391C64.8418 9.29688 64.8594 9.71875 64.8516 10.2695H60.4805C60.5039 10.9102 60.7051 11.3594 61.084 11.6172C61.3145 11.7773 61.5918 11.8574 61.916 11.8574C62.2598 11.8574 62.5391 11.7598 62.7539 11.5645C62.8711 11.459 62.9746 11.3125 63.0645 11.125H64.7695C64.7266 11.5039 64.5293 11.8887 64.1777 12.2793C63.6309 12.9004 62.8652 13.2109 61.8809 13.2109C61.0684 13.2109 60.3516 12.9492 59.7305 12.4258C59.1094 11.9023 58.7988 11.0508 58.7988 9.87109C58.7988 8.76562 59.0781 7.91797 59.6367 7.32812C60.1992 6.73828 60.9277 6.44336 61.8223 6.44336ZM68.4379 6.46094C68.8246 6.46094 69.1684 6.54688 69.4691 6.71875C69.7699 6.88672 70.0141 7.12109 70.2016 7.42188V4.375H71.8949V13H70.2719V12.1152C70.0336 12.4941 69.7621 12.7695 69.4574 12.9414C69.1527 13.1133 68.7738 13.1992 68.3207 13.1992C67.5746 13.1992 66.9457 12.8984 66.434 12.2969C65.9262 11.6914 65.6723 10.916 65.6723 9.9707C65.6723 8.88086 65.9223 8.02344 66.4223 7.39844C66.9262 6.77344 67.598 6.46094 68.4379 6.46094ZM68.8012 11.793C69.2738 11.793 69.6332 11.6172 69.8793 11.2656C70.1254 10.9141 70.2484 10.459 70.2484 9.90039C70.2484 9.11914 70.0512 8.56055 69.6566 8.22461C69.4145 8.02148 69.1332 7.91992 68.8129 7.91992C68.3246 7.91992 67.9652 8.10547 67.7348 8.47656C67.5082 8.84375 67.3949 9.30078 67.3949 9.84766C67.3949 10.4375 67.5102 10.9102 67.7406 11.2656C67.975 11.6172 68.3285 11.793 68.8012 11.793ZM76.2605 11.6289C76.6512 11.6289 76.9813 11.4824 77.2508 11.1895C77.5203 10.8926 77.6551 10.4219 77.6551 9.77734C77.6551 9.17188 77.5262 8.71094 77.2684 8.39453C77.0145 8.07812 76.6727 7.91992 76.243 7.91992C75.657 7.91992 75.2527 8.19531 75.0301 8.74609C74.9129 9.03906 74.8543 9.40039 74.8543 9.83008C74.8543 10.2012 74.9168 10.5312 75.0418 10.8203C75.2684 11.3594 75.6746 11.6289 76.2605 11.6289ZM75.8445 6.46094C76.1648 6.46094 76.4441 6.50977 76.6824 6.60742C77.0887 6.77539 77.4168 7.08398 77.6668 7.5332V6.61328H79.2898V12.6719C79.2898 13.4961 79.1512 14.1172 78.8738 14.5352C78.3973 15.2539 77.4832 15.6133 76.1316 15.6133C75.3152 15.6133 74.6492 15.4531 74.1336 15.1328C73.618 14.8125 73.3328 14.334 73.2781 13.6973H75.0945C75.1414 13.8926 75.2176 14.0332 75.323 14.1191C75.5027 14.2715 75.8055 14.3477 76.2313 14.3477C76.8328 14.3477 77.2352 14.1465 77.4383 13.7441C77.5711 13.4863 77.6375 13.0527 77.6375 12.4434V12.0332C77.4773 12.3066 77.3055 12.5117 77.1219 12.6484C76.7898 12.9023 76.3582 13.0293 75.827 13.0293C75.0066 13.0293 74.3504 12.7422 73.8582 12.168C73.3699 11.5898 73.1258 10.8086 73.1258 9.82422C73.1258 8.875 73.3621 8.07812 73.8348 7.43359C74.3074 6.78516 74.9773 6.46094 75.8445 6.46094ZM83.4738 7.82031C83.0871 7.82031 82.7863 7.94141 82.5715 8.18359C82.3605 8.42578 82.2277 8.75391 82.173 9.16797H84.7687C84.7414 8.72656 84.6066 8.39258 84.3645 8.16602C84.1262 7.93555 83.8293 7.82031 83.4738 7.82031ZM83.4738 6.44336C84.0051 6.44336 84.4836 6.54297 84.9094 6.74219C85.3352 6.94141 85.6867 7.25586 85.9641 7.68555C86.2141 8.06445 86.3762 8.50391 86.4504 9.00391C86.4934 9.29688 86.5109 9.71875 86.5031 10.2695H82.132C82.1555 10.9102 82.3566 11.3594 82.7355 11.6172C82.966 11.7773 83.2434 11.8574 83.5676 11.8574C83.9113 11.8574 84.1906 11.7598 84.4055 11.5645C84.5227 11.459 84.6262 11.3125 84.716 11.125H86.4211C86.3781 11.5039 86.1809 11.8887 85.8293 12.2793C85.2824 12.9004 84.5168 13.2109 83.5324 13.2109C82.7199 13.2109 82.0031 12.9492 81.382 12.4258C80.7609 11.9023 80.4504 11.0508 80.4504 9.87109C80.4504 8.76562 80.7297 7.91797 81.2883 7.32812C81.8508 6.73828 82.5793 6.44336 83.4738 6.44336ZM89.6207 5.86328V7.76758H91.7418C92.1207 7.76758 92.4273 7.69727 92.6617 7.55664C92.9 7.41211 93.0191 7.1582 93.0191 6.79492C93.0191 6.39258 92.8629 6.12695 92.5504 5.99805C92.2809 5.9082 91.9371 5.86328 91.5191 5.86328H89.6207ZM89.6207 9.19727V11.5H91.7418C92.1207 11.5 92.4156 11.4492 92.6266 11.3477C93.0094 11.1602 93.2008 10.8008 93.2008 10.2695C93.2008 9.82031 93.0152 9.51172 92.6441 9.34375C92.4371 9.25 92.1461 9.20117 91.7711 9.19727H89.6207ZM92.0934 4.36328C93.152 4.37891 93.902 4.68555 94.3434 5.2832C94.609 5.65039 94.7418 6.08984 94.7418 6.60156C94.7418 7.12891 94.609 7.55273 94.3434 7.87305C94.1949 8.05273 93.9762 8.2168 93.6871 8.36523C94.1285 8.52539 94.4605 8.7793 94.6832 9.12695C94.9098 9.47461 95.023 9.89648 95.023 10.3926C95.023 10.9043 94.8941 11.3633 94.6363 11.7695C94.4723 12.0391 94.2672 12.2656 94.0211 12.4492C93.7438 12.6602 93.4156 12.8047 93.0367 12.8828C92.6617 12.9609 92.2535 13 91.8121 13H87.898V4.36328H92.0934ZM100.027 9.89453C99.9219 9.96094 99.8145 10.0156 99.7051 10.0586C99.5996 10.0977 99.4531 10.1348 99.2656 10.1699L98.8906 10.2402C98.5391 10.3027 98.2871 10.3789 98.1348 10.4688C97.877 10.6211 97.748 10.8574 97.748 11.1777C97.748 11.4629 97.8262 11.6699 97.9824 11.7988C98.1426 11.9238 98.3359 11.9863 98.5625 11.9863C98.9219 11.9863 99.252 11.8809 99.5527 11.6699C99.8574 11.459 100.016 11.0742 100.027 10.5156V9.89453ZM99.0137 9.11523C99.3223 9.07617 99.543 9.02734 99.6758 8.96875C99.9141 8.86719 100.033 8.70898 100.033 8.49414C100.033 8.23242 99.9414 8.05273 99.7578 7.95508C99.5781 7.85352 99.3125 7.80273 98.9609 7.80273C98.5664 7.80273 98.2871 7.90039 98.123 8.0957C98.0059 8.24023 97.9277 8.43555 97.8887 8.68164H96.2773C96.3125 8.12305 96.4688 7.66406 96.7461 7.30469C97.1875 6.74219 97.9453 6.46094 99.0195 6.46094C99.7188 6.46094 100.34 6.59961 100.883 6.87695C101.426 7.1543 101.697 7.67773 101.697 8.44727V11.377C101.697 11.5801 101.701 11.8262 101.709 12.1152C101.721 12.334 101.754 12.4824 101.809 12.5605C101.863 12.6387 101.945 12.7031 102.055 12.7539V13H100.238C100.188 12.8711 100.152 12.75 100.133 12.6367C100.113 12.5234 100.098 12.3945 100.086 12.25C99.8555 12.5 99.5898 12.7129 99.2891 12.8887C98.9297 13.0957 98.5234 13.1992 98.0703 13.1992C97.4922 13.1992 97.0137 13.0352 96.6348 12.707C96.2598 12.375 96.0723 11.9062 96.0723 11.3008C96.0723 10.5156 96.375 9.94727 96.9805 9.5957C97.3125 9.4043 97.8008 9.26758 98.4453 9.18555L99.0137 9.11523ZM104.586 10.9609C104.621 11.2578 104.698 11.4688 104.815 11.5938C105.022 11.8164 105.405 11.9277 105.963 11.9277C106.291 11.9277 106.551 11.8789 106.743 11.7812C106.938 11.6836 107.036 11.5371 107.036 11.3418C107.036 11.1543 106.957 11.0117 106.801 10.9141C106.645 10.8164 106.065 10.6484 105.061 10.4102C104.338 10.2305 103.829 10.0059 103.532 9.73633C103.235 9.4707 103.086 9.08789 103.086 8.58789C103.086 7.99805 103.317 7.49219 103.778 7.07031C104.243 6.64453 104.895 6.43164 105.735 6.43164C106.532 6.43164 107.18 6.5918 107.68 6.91211C108.184 7.22852 108.473 7.77734 108.547 8.55859H106.877C106.854 8.34375 106.793 8.17383 106.696 8.04883C106.512 7.82227 106.2 7.70898 105.758 7.70898C105.395 7.70898 105.135 7.76562 104.979 7.87891C104.827 7.99219 104.75 8.125 104.75 8.27734C104.75 8.46875 104.832 8.60742 104.996 8.69336C105.161 8.7832 105.741 8.9375 106.737 9.15625C107.401 9.3125 107.899 9.54883 108.231 9.86523C108.559 10.1855 108.723 10.5859 108.723 11.0664C108.723 11.6992 108.487 12.2168 108.014 12.6191C107.545 13.0176 106.819 13.2168 105.834 13.2168C104.83 13.2168 104.088 13.0059 103.608 12.584C103.131 12.1582 102.893 11.6172 102.893 10.9609H104.586ZM112.585 7.82031C112.198 7.82031 111.897 7.94141 111.682 8.18359C111.471 8.42578 111.339 8.75391 111.284 9.16797H113.88C113.852 8.72656 113.718 8.39258 113.475 8.16602C113.237 7.93555 112.94 7.82031 112.585 7.82031ZM112.585 6.44336C113.116 6.44336 113.595 6.54297 114.02 6.74219C114.446 6.94141 114.798 7.25586 115.075 7.68555C115.325 8.06445 115.487 8.50391 115.561 9.00391C115.604 9.29688 115.622 9.71875 115.614 10.2695H111.243C111.266 10.9102 111.468 11.3594 111.846 11.6172C112.077 11.7773 112.354 11.8574 112.679 11.8574C113.022 11.8574 113.302 11.7598 113.516 11.5645C113.634 11.459 113.737 11.3125 113.827 11.125H115.532C115.489 11.5039 115.292 11.8887 114.94 12.2793C114.393 12.9004 113.628 13.2109 112.643 13.2109C111.831 13.2109 111.114 12.9492 110.493 12.4258C109.872 11.9023 109.561 11.0508 109.561 9.87109C109.561 8.76562 109.841 7.91797 110.399 7.32812C110.962 6.73828 111.69 6.44336 112.585 6.44336Z" fill="#131317"/>
</svg>
