<svg width="76" height="18" viewBox="0 0 76 18" fill="none" xmlns="http://www.w3.org/2000/svg">
<path d="M17.9002 10.946C17.819 11.8962 17.3812 12.7804 16.6748 13.4211C15.9685 14.0619 15.0458 14.4116 14.0922 14.4H11.9922L7.99223 17V14.4L11.9922 11.8H14.0962C14.3939 11.8108 14.6846 11.7081 14.9096 11.5129C15.1345 11.3176 15.277 11.0442 15.3082 10.748C15.4305 8.74953 15.4205 6.74515 15.2782 4.748C15.2541 4.4816 15.135 4.23275 14.9426 4.04694C14.7502 3.86113 14.4973 3.75076 14.2302 3.736C12.8662 3.652 11.4302 3.6 9.99223 3.6C8.55423 3.6 7.11823 3.648 5.75423 3.744C5.48714 3.75876 5.23429 3.86913 5.04187 4.05494C4.84945 4.24075 4.73031 4.4896 4.70623 4.756C4.56398 6.75315 4.55396 8.75753 4.67623 10.756C4.70932 11.0508 4.85261 11.3222 5.07738 11.5158C5.30214 11.7094 5.59177 11.8109 5.88823 11.8H7.99223V14.4H5.89223C4.93969 14.4095 4.01878 14.0586 3.31406 13.4177C2.60934 12.7767 2.17291 11.8932 2.09223 10.944C1.95995 8.81237 1.96997 6.67429 2.12223 4.544C2.19782 3.66059 2.58663 2.83328 3.21851 2.2113C3.85038 1.58933 4.68373 1.21364 5.56823 1.152C6.99223 1.05 8.49223 1 9.99223 1C11.4922 1 12.9922 1.05 14.4162 1.152C15.3034 1.21205 16.1397 1.58807 16.7734 2.21186C17.4071 2.83564 17.7962 3.66589 17.8702 4.552C18.0222 6.6803 18.0322 8.81637 17.9002 10.946Z" fill="#FF5100"/>
<path d="M22.9141 4.36328H24.7188V11.4473H28.9961V13H22.9141V4.36328ZM31.932 5.85156H30.2387V4.31055H31.932V5.85156ZM30.2387 6.61328H31.932V13H30.2387V6.61328ZM37.5926 6.61328H39.3855L37.0828 13H35.3191L33.0281 6.61328H34.9031L36.2332 11.3242L37.5926 6.61328ZM42.9543 7.82031C42.5676 7.82031 42.2668 7.94141 42.052 8.18359C41.841 8.42578 41.7082 8.75391 41.6535 9.16797H44.2492C44.2219 8.72656 44.0871 8.39258 43.8449 8.16602C43.6066 7.93555 43.3098 7.82031 42.9543 7.82031ZM42.9543 6.44336C43.4855 6.44336 43.9641 6.54297 44.3898 6.74219C44.8156 6.94141 45.1672 7.25586 45.4445 7.68555C45.6945 8.06445 45.8566 8.50391 45.9309 9.00391C45.9738 9.29688 45.9914 9.71875 45.9836 10.2695H41.6125C41.6359 10.9102 41.8371 11.3594 42.216 11.6172C42.4465 11.7773 42.7238 11.8574 43.048 11.8574C43.3918 11.8574 43.6711 11.7598 43.8859 11.5645C44.0031 11.459 44.1066 11.3125 44.1965 11.125H45.9016C45.8586 11.5039 45.6613 11.8887 45.3098 12.2793C44.7629 12.9004 43.9973 13.2109 43.0129 13.2109C42.2004 13.2109 41.4836 12.9492 40.8625 12.4258C40.2414 11.9023 39.9309 11.0508 39.9309 9.87109C39.9309 8.76562 40.2102 7.91797 40.7687 7.32812C41.3312 6.73828 42.0598 6.44336 42.9543 6.44336ZM46.9742 8.75195C46.9742 7.24414 47.3785 6.08203 48.1871 5.26562C48.8902 4.55469 49.7848 4.19922 50.8707 4.19922C52.3238 4.19922 53.3863 4.67578 54.0582 5.62891C54.4293 6.16406 54.6285 6.70117 54.6559 7.24023H52.8512C52.734 6.82617 52.5836 6.51367 52.4 6.30273C52.0719 5.92773 51.5855 5.74023 50.941 5.74023C50.2848 5.74023 49.7672 6.00586 49.3883 6.53711C49.0094 7.06445 48.8199 7.8125 48.8199 8.78125C48.8199 9.75 49.0191 10.4766 49.4176 10.9609C49.8199 11.4414 50.3297 11.6816 50.9469 11.6816C51.5797 11.6816 52.0621 11.4746 52.3941 11.0605C52.5777 10.8379 52.7301 10.5039 52.8512 10.0586H54.6383C54.482 11 54.0816 11.7656 53.4371 12.3555C52.7965 12.9453 51.9742 13.2402 50.9703 13.2402C49.7281 13.2402 48.7516 12.8418 48.0406 12.0449C47.3297 11.2441 46.9742 10.1465 46.9742 8.75195ZM59.5078 6.44922C59.9023 6.44922 60.2598 6.51758 60.5801 6.6543C60.9043 6.79102 61.1699 7 61.377 7.28125C61.5527 7.51953 61.6602 7.76562 61.6992 8.01953C61.7383 8.26953 61.7578 8.67969 61.7578 9.25V13H60.0527V9.11523C60.0527 8.77148 59.9941 8.49414 59.877 8.2832C59.7246 7.98633 59.4355 7.83789 59.0098 7.83789C58.5684 7.83789 58.2324 7.98633 58.002 8.2832C57.7754 8.57617 57.6621 8.99609 57.6621 9.54297V13H55.998V4.39258H57.6621V7.44531C57.9043 7.07422 58.1836 6.81641 58.5 6.67188C58.8203 6.52344 59.1562 6.44922 59.5078 6.44922ZM66.9437 9.89453C66.8383 9.96094 66.7309 10.0156 66.6215 10.0586C66.516 10.0977 66.3695 10.1348 66.182 10.1699L65.807 10.2402C65.4555 10.3027 65.2035 10.3789 65.0512 10.4688C64.7934 10.6211 64.6645 10.8574 64.6645 11.1777C64.6645 11.4629 64.7426 11.6699 64.8988 11.7988C65.059 11.9238 65.2523 11.9863 65.4789 11.9863C65.8383 11.9863 66.1684 11.8809 66.4691 11.6699C66.7738 11.459 66.932 11.0742 66.9437 10.5156V9.89453ZM65.9301 9.11523C66.2387 9.07617 66.4594 9.02734 66.5922 8.96875C66.8305 8.86719 66.9496 8.70898 66.9496 8.49414C66.9496 8.23242 66.8578 8.05273 66.6742 7.95508C66.4945 7.85352 66.2289 7.80273 65.8773 7.80273C65.4828 7.80273 65.2035 7.90039 65.0395 8.0957C64.9223 8.24023 64.8441 8.43555 64.8051 8.68164H63.1937C63.2289 8.12305 63.3852 7.66406 63.6625 7.30469C64.1039 6.74219 64.8617 6.46094 65.9359 6.46094C66.6352 6.46094 67.2562 6.59961 67.7992 6.87695C68.3422 7.1543 68.6137 7.67773 68.6137 8.44727V11.377C68.6137 11.5801 68.6176 11.8262 68.6254 12.1152C68.6371 12.334 68.6703 12.4824 68.725 12.5605C68.7797 12.6387 68.8617 12.7031 68.9711 12.7539V13H67.1547C67.1039 12.8711 67.0687 12.75 67.0492 12.6367C67.0297 12.5234 67.0141 12.3945 67.0023 12.25C66.7719 12.5 66.5062 12.7129 66.2055 12.8887C65.8461 13.0957 65.4398 13.1992 64.9867 13.1992C64.4086 13.1992 63.9301 13.0352 63.5512 12.707C63.1762 12.375 62.9887 11.9062 62.9887 11.3008C62.9887 10.5156 63.2914 9.94727 63.8969 9.5957C64.2289 9.4043 64.7172 9.26758 65.3617 9.18555L65.9301 9.11523ZM69.5457 7.86133V6.67188H70.4363V4.89062H72.0887V6.67188H73.1258V7.86133H72.0887V11.2363C72.0887 11.498 72.1219 11.6621 72.1883 11.7285C72.2547 11.791 72.4578 11.8223 72.7977 11.8223C72.8484 11.8223 72.9012 11.8223 72.9559 11.8223C73.0145 11.8184 73.0711 11.8145 73.1258 11.8105V13.0586L72.3348 13.0879C71.5457 13.1152 71.0066 12.9785 70.7176 12.6777C70.5301 12.4863 70.4363 12.1914 70.4363 11.793V7.86133H69.5457Z" fill="#131317"/>
</svg>
