<svg width="29" height="29" viewBox="0 0 29 29" fill="none" xmlns="http://www.w3.org/2000/svg">
<path d="M21.3734 11.3789V14.2173C21.3771 14.4097 21.3254 14.5991 21.2245 14.763C21.1236 14.9269 20.9777 15.0583 20.8043 15.1416C18.8286 16.0893 16.6761 16.6116 14.4859 16.675C12.2974 16.6135 10.1462 16.0936 8.17115 15.1489C7.99614 15.0652 7.849 14.9328 7.74741 14.7675C7.64581 14.6023 7.59407 14.4112 7.5984 14.2173V11.3789C7.60316 11.2488 7.63953 11.1219 7.70435 11.0091C7.76917 10.8963 7.8605 10.8009 7.97044 10.7313C8.08038 10.6617 8.20562 10.62 8.33533 10.6096C8.46504 10.5993 8.59532 10.6207 8.7149 10.672C10.5361 11.474 12.4965 11.9123 14.4859 11.9625C16.4759 11.9145 18.4375 11.4786 20.2605 10.6793C20.3794 10.6289 20.5086 10.608 20.6373 10.6183C20.766 10.6286 20.8903 10.6699 20.9996 10.7386C21.1088 10.8073 21.1999 10.9014 21.265 11.0129C21.3301 11.1244 21.3673 11.2499 21.3734 11.3789Z" fill="#0066FF"/>
<path d="M28.8192 18.0271C28.6719 19.7493 27.8784 21.3521 26.5981 22.5133C25.3178 23.6746 23.6455 24.3084 21.9172 24.2875H18.1109L10.8609 29V24.2875L18.1109 19.575H21.9244C22.464 19.5945 22.9908 19.4085 23.3986 19.0546C23.8063 18.7007 24.0646 18.2052 24.1212 17.6682C24.3428 14.046 24.3246 10.4131 24.0668 6.79325C24.0231 6.31039 23.8072 5.85936 23.4584 5.52258C23.1097 5.1858 22.6514 4.98575 22.1673 4.959C19.695 4.80675 17.0923 4.7125 14.4859 4.7125C11.8795 4.7125 9.27678 4.7995 6.80453 4.9735C6.32045 5.00025 5.86215 5.2003 5.51338 5.53708C5.16462 5.87386 4.94869 6.32489 4.90503 6.80775C4.64721 10.4276 4.62905 14.0605 4.85066 17.6827C4.91065 18.2171 5.17036 18.709 5.57774 19.0599C5.98513 19.4108 6.51009 19.5948 7.04741 19.575H10.8609V24.2875H7.05466C5.32819 24.3047 3.65903 23.6687 2.38173 22.507C1.10443 21.3454 0.313391 19.7438 0.167158 18.0235C-0.0725891 14.1599 -0.0544238 10.2847 0.221533 6.4235C0.358552 4.82232 1.06326 3.32282 2.20854 2.19549C3.35382 1.06816 4.86427 0.387214 6.46741 0.2755C9.04841 0.090625 11.7672 0 14.4859 0C17.2047 0 19.9234 0.090625 22.5044 0.2755C24.1124 0.384344 25.6281 1.06588 26.7767 2.19649C27.9253 3.32711 28.6306 4.83192 28.7648 6.438C29.0403 10.2955 29.0584 14.1672 28.8192 18.0271Z" fill="#0066FF"/>
</svg>
